<svg xmlns="http://www.w3.org/2000/svg" width="100" height="100" viewBox="0 0 100 100">
  <defs>
    <pattern id="arabic-geo" x="0" y="0" width="100" height="100" patternUnits="userSpaceOnUse">
      <!-- Islamic geometric star pattern -->
      <polygon points="50,5 61,39 95,39 67,59 78,93 50,73 22,93 33,59 5,39 39,39" 
               fill="none" stroke="#C5A55A" stroke-width="0.5" opacity="0.08"/>
      <polygon points="50,15 58,40 85,40 63,55 71,80 50,65 29,80 37,55 15,40 42,40" 
               fill="none" stroke="#C5A55A" stroke-width="0.5" opacity="0.06"/>
      <circle cx="50" cy="50" r="20" fill="none" stroke="#C5A55A" stroke-width="0.5" opacity="0.05"/>
      <circle cx="50" cy="50" r="12" fill="none" stroke="#C5A55A" stroke-width="0.5" opacity="0.07"/>
      <!-- Corner motifs -->
      <path d="M0,0 Q15,5 20,20 Q5,15 0,0" fill="none" stroke="#C5A55A" stroke-width="0.5" opacity="0.06"/>
      <path d="M100,0 Q85,5 80,20 Q95,15 100,0" fill="none" stroke="#C5A55A" stroke-width="0.5" opacity="0.06"/>
      <path d="M0,100 Q15,95 20,80 Q5,85 0,100" fill="none" stroke="#C5A55A" stroke-width="0.5" opacity="0.06"/>
      <path d="M100,100 Q85,95 80,80 Q95,85 100,100" fill="none" stroke="#C5A55A" stroke-width="0.5" opacity="0.06"/>
    </pattern>
  </defs>
  <rect width="100" height="100" fill="url(#arabic-geo)"/>
</svg>